<svg id="svg" version="1.1" xmlns="http://www.w3.org/2000/svg" xmlns:xlink="http://www.w3.org/1999/xlink" width="400" height="400" viewBox="0, 0, 400,400"><g id="svgg"><path id="path0" d="M373.362 362.861 C 370.085 364.712,366.198 366.911,364.723 367.747 L 362.043 369.268 362.043 379.079 L 362.043 388.891 370.681 393.777 L 379.319 398.663 380.181 398.182 C 380.655 397.918,384.580 395.711,388.902 393.277 L 396.761 388.851 396.763 379.127 C 396.765 371.550,396.719 369.366,396.553 369.234 C 396.436 369.140,393.238 367.319,389.447 365.187 C 385.655 363.054,381.842 360.900,380.973 360.399 C 380.103 359.899,379.376 359.491,379.356 359.493 C 379.336 359.494,376.638 361.010,373.362 362.861 M386.226 365.391 C 393.957 369.758,393.422 369.227,391.234 370.359 L 390.129 370.930 386.691 368.985 L 383.254 367.039 382.478 367.463 C 382.051 367.696,381.664 367.919,381.617 367.958 C 381.453 368.095,382.356 368.695,382.590 368.605 C 382.720 368.555,382.784 368.582,382.733 368.665 C 382.614 368.858,383.123 369.058,383.361 368.910 C 383.462 368.848,383.493 368.878,383.430 368.979 C 383.364 369.086,384.326 369.726,385.787 370.547 C 387.145 371.310,388.255 371.960,388.255 371.992 C 388.255 372.058,384.225 374.298,384.105 374.298 C 384.060 374.298,382.910 373.679,381.549 372.923 C 380.130 372.134,378.989 371.601,378.873 371.672 C 378.754 371.746,378.716 371.725,378.780 371.621 C 378.841 371.522,378.496 371.240,377.998 370.982 L 377.106 370.520 376.274 370.990 C 375.270 371.557,375.003 371.311,379.157 373.642 C 380.884 374.611,382.296 375.466,382.297 375.542 C 382.297 375.618,382.237 375.642,382.162 375.596 C 381.956 375.468,380.403 376.429,380.551 376.593 C 380.622 376.671,380.592 376.685,380.483 376.622 C 380.374 376.560,380.068 376.632,379.802 376.783 C 379.327 377.053,379.292 377.042,377.532 376.041 C 374.454 374.292,367.246 370.269,366.979 370.151 C 365.237 369.384,365.132 369.496,370.366 366.554 C 372.899 365.130,374.916 363.903,374.847 363.827 C 374.779 363.752,374.806 363.737,374.906 363.794 C 375.007 363.851,376.002 363.370,377.119 362.725 C 378.235 362.079,379.205 361.547,379.273 361.542 C 379.341 361.536,382.470 363.268,386.226 365.391 M372.766 381.289 L 372.851 385.236 373.745 385.741 L 374.638 386.246 374.638 382.399 C 374.638 380.284,374.686 378.553,374.745 378.553 C 374.983 378.553,377.392 379.967,377.461 380.147 C 377.502 380.253,377.516 383.765,377.491 387.951 L 377.447 395.562 373.362 393.261 C 371.115 391.996,369.104 390.848,368.894 390.710 C 368.515 390.463,368.511 390.416,368.511 386.576 L 368.511 382.692 367.660 382.229 L 366.809 381.766 366.809 385.606 C 366.809 387.719,366.761 389.447,366.704 389.447 C 366.646 389.447,365.957 389.083,365.173 388.638 L 363.747 387.830 363.746 380.058 L 363.745 372.285 368.213 374.813 L 372.681 377.341 372.766 381.289 M394.894 375.232 L 394.894 378.038 394.255 378.433 C 393.904 378.651,392.334 379.547,390.766 380.424 L 387.915 382.020 387.915 383.946 C 387.915 385.006,387.962 385.872,388.020 385.872 C 388.077 385.872,388.498 385.669,388.956 385.420 L 389.787 384.967 389.787 383.988 L 389.787 383.009 392.259 381.632 C 393.619 380.875,394.767 380.255,394.812 380.255 C 394.857 380.255,394.894 381.971,394.894 384.068 L 394.894 387.882 388.070 391.728 C 384.316 393.844,381.214 395.574,381.176 395.574 C 381.138 395.574,381.106 392.097,381.106 387.846 L 381.106 380.117 382.426 379.353 C 383.568 378.690,388.009 376.190,392.170 373.867 C 392.872 373.475,393.715 372.991,394.043 372.791 C 394.370 372.591,394.696 372.427,394.766 372.426 C 394.836 372.426,394.894 373.688,394.894 375.232 " stroke="none" fill="#33434b" fill-rule="evenodd"></path><path id="path1" d="M372.506 365.386 C 368.764 367.496,365.685 369.239,365.663 369.259 C 365.623 369.299,373.826 373.959,375.915 375.083 C 376.570 375.436,377.602 376.012,378.209 376.364 L 379.311 377.002 380.166 376.519 C 380.636 376.253,381.296 375.890,381.632 375.713 L 382.243 375.392 378.871 373.526 C 375.083 371.430,375.230 371.571,376.228 370.986 C 377.218 370.406,376.938 370.316,380.743 372.430 L 384.121 374.306 386.194 373.137 L 388.267 371.968 384.840 370.037 C 381.074 367.914,381.200 368.070,382.651 367.317 L 383.260 367.002 386.712 368.942 L 390.163 370.882 391.242 370.300 C 391.835 369.980,392.473 369.622,392.661 369.505 C 393.061 369.255,393.843 369.748,386.298 365.493 C 383.396 363.857,380.636 362.300,380.166 362.034 L 379.310 361.551 372.506 365.386 M363.749 380.113 L 363.754 387.830 365.196 388.621 L 366.638 389.413 366.638 385.600 C 366.638 381.401,366.591 381.545,367.754 382.227 L 368.504 382.667 368.550 386.590 L 368.596 390.513 371.149 391.952 C 372.553 392.743,374.564 393.878,375.617 394.474 L 377.532 395.558 377.532 387.833 L 377.532 380.109 376.216 379.374 C 375.493 378.969,374.842 378.613,374.770 378.582 C 374.697 378.550,374.638 380.255,374.638 382.369 C 374.638 384.483,374.591 386.213,374.534 386.213 C 374.476 386.213,374.055 386.009,373.598 385.760 L 372.766 385.308 372.766 381.369 L 372.766 377.430 368.394 374.970 C 365.990 373.618,363.960 372.485,363.884 372.454 C 363.807 372.423,363.747 375.870,363.749 380.113 M390.213 375.002 C 387.779 376.401,385.595 377.638,385.361 377.752 C 385.126 377.865,384.074 378.455,383.023 379.064 L 381.112 380.170 381.109 387.885 L 381.106 395.600 382.268 394.949 C 382.907 394.591,386.010 392.843,389.162 391.066 L 394.894 387.834 394.894 384.030 C 394.894 381.779,394.830 380.250,394.737 380.284 C 394.650 380.315,393.502 380.953,392.186 381.702 L 389.793 383.064 389.790 384.026 C 389.787 384.984,389.783 384.991,389.034 385.431 C 387.910 386.089,387.915 386.096,387.915 383.930 L 387.915 381.987 391.404 380.006 L 394.894 378.025 394.894 375.225 C 394.894 373.685,394.836 372.433,394.766 372.442 C 394.696 372.450,392.647 373.602,390.213 375.002 " stroke="none" fill="#eef1f3" fill-rule="evenodd"></path><path id="path2" d="" stroke="none" fill="#747c7e" fill-rule="evenodd"></path><path id="path3" d="M366.711 385.617 C 366.711 387.770,366.736 388.628,366.765 387.522 C 366.795 386.417,366.795 384.655,366.765 383.607 C 366.735 382.560,366.711 383.464,366.711 385.617 " stroke="none" fill="#919ca2" fill-rule="evenodd"></path><path id="path4" d="" stroke="none" fill="#7c848c" fill-rule="evenodd"></path></g></svg>